<svg width="24" height="24" viewBox="0 0 24 24" fill="none" xmlns="http://www.w3.org/2000/svg">
<g id="Star">
<path id="Vector" d="M11.9993 19.4068L6.6672 22.5832C6.43164 22.7315 6.18538 22.795 5.92841 22.7738C5.67144 22.7526 5.44659 22.6679 5.25386 22.5197C5.06113 22.3715 4.91123 22.186 4.80416 21.9632C4.69709 21.7404 4.67568 21.4918 4.73992 21.2174L6.15326 15.2139L1.43143 11.1799C1.21729 10.9893 1.08366 10.772 1.03055 10.5281C0.977448 10.2841 0.993294 10.0461 1.07809 9.814C1.16375 9.58106 1.29224 9.39048 1.46355 9.24224C1.63486 9.09401 1.87042 8.99872 2.17022 8.95637L8.40175 8.41638L10.8108 2.76234C10.9179 2.50823 11.0841 2.31764 11.3094 2.19059C11.5346 2.06353 11.7646 2 11.9993 2C12.2349 2 12.4649 2.06353 12.6893 2.19059C12.9137 2.31764 13.0799 2.50823 13.1878 2.76234L15.5969 8.41638L21.8284 8.95637C22.1282 8.99872 22.3638 9.09401 22.5351 9.24224C22.7064 9.39048 22.8349 9.58106 22.9206 9.814C23.0062 10.0469 23.0225 10.2854 22.9694 10.5293C22.9163 10.7733 22.7822 10.9901 22.5672 11.1799L17.8454 15.2139L19.2587 21.2174C19.323 21.4927 19.3016 21.7417 19.1945 21.9645C19.0874 22.1872 18.9375 22.3723 18.7448 22.5197C18.5521 22.6679 18.3272 22.7526 18.0703 22.7738C17.8133 22.795 17.567 22.7315 17.3315 22.5832L11.9993 19.4068Z" fill="#FFB726"/>
</g>
</svg>
