<svg width="40" height="40" viewBox="0 0 40 40" fill="none" xmlns="http://www.w3.org/2000/svg">
<path d="M28.8756 8.51285C27.5867 8.33747 25.8002 7.47041 24.1601 4.52084C23.0751 6.88186 24.2072 9.53367 24.271 9.67864C24.3588 9.87803 24.3728 10.1032 24.3109 10.3187C24.249 10.5341 24.1146 10.7277 23.929 10.869C23.3121 11.3363 22.988 11.8458 22.9382 12.4268C22.8422 13.5518 23.7611 14.793 24.3142 15.3861C25.4796 15.6051 27.1687 16.6073 27.377 19.3526C27.3868 19.4819 27.3697 19.6131 27.3266 19.7387C27.2834 19.8644 27.2152 19.982 27.1257 20.0849C27.0362 20.1879 26.9273 20.274 26.805 20.3386C26.6828 20.4031 26.5497 20.4448 26.4134 20.4611C26.277 20.4774 26.1401 20.4681 26.0103 20.4337C25.8806 20.3994 25.7607 20.3406 25.6573 20.2608C25.554 20.1809 25.4692 20.0816 25.408 19.9684C25.3468 19.8553 25.3102 19.7305 25.3004 19.6013C25.1311 17.3688 23.7221 17.321 23.7078 17.3209L16.7421 17.2129C16.5923 17.2106 16.4465 17.1773 16.3148 17.1154C16.1831 17.0535 16.0685 16.9644 15.979 16.8542L14.5392 15.0814C14.4492 14.9706 14.3867 14.841 14.356 14.7018C14.3253 14.5626 14.3271 14.4171 14.3614 14.2753C14.4504 13.9054 14.4286 13.5246 14.2985 13.1773C14.1683 12.83 13.9353 12.5304 13.6264 12.3133C13.3175 12.0962 12.9455 11.9706 12.5535 11.9511C12.1616 11.9315 11.7659 12.0188 11.4124 12.2029C10.956 12.4446 10.599 12.8322 10.4083 13.2929C10.2175 13.7536 10.2062 14.2558 10.3764 14.7054C10.5063 15.0432 10.7344 15.3348 11.0352 15.5475C11.336 15.7602 11.6977 15.8855 12.0796 15.9095C12.2381 15.9197 12.39 15.9646 12.5236 16.0409C12.6572 16.1171 12.769 16.2226 12.8502 16.3492L14.487 18.9004L16.7897 19.6876C17.3888 19.7665 20.5449 20.1705 22.5661 20.2018C22.7032 20.2029 22.8373 20.2299 22.9606 20.2813C23.0839 20.3326 23.1939 20.4073 23.2844 20.501C23.3749 20.5947 23.4441 20.7056 23.4879 20.8272C23.5317 20.9489 23.5493 21.0789 23.5396 21.2098C23.53 21.3407 23.4933 21.4698 23.4317 21.5898C23.3702 21.7098 23.2849 21.8183 23.1808 21.909C23.0768 21.9997 22.956 22.0708 22.8254 22.1182C22.6949 22.1656 22.5571 22.1884 22.4202 22.1852C20.5607 22.1564 17.9189 21.8464 16.8079 21.7061C15.4003 23.0834 15.0135 24.3795 14.9124 24.8733L16.3989 28.2034C16.5048 28.4405 16.505 28.7132 16.3996 28.9614C16.2941 29.2096 16.0917 29.4129 15.8367 29.5267C15.5817 29.6405 15.2951 29.6555 15.04 29.5682C14.7849 29.481 14.582 29.2988 14.4762 29.0616L12.9176 25.57C11.7577 23.9037 10.1267 23.2744 7.93222 23.6504C6.7934 23.863 5.69294 24.267 4.68329 24.8432C4.47365 24.9713 4.22748 25.0279 3.98742 25.003C3.74735 24.9782 3.5285 24.8735 3.36878 24.7072L2.56327 23.8663C2.36189 23.6561 2.07856 23.5329 1.77274 23.5226C1.46693 23.5122 1.16239 23.6155 0.923059 23.8108C0.683723 24.0061 0.528193 24.2782 0.489108 24.5699C0.450024 24.8617 0.530423 25.1505 0.713434 25.3757L3.68753 29.036C3.80832 29.1848 3.97409 29.2943 4.16443 29.351C4.35478 29.4077 4.56141 29.4093 4.7589 29.3554L9.59674 28.0371C9.73266 28 9.87353 27.989 10.011 28.0047C10.1485 28.0204 10.2797 28.0625 10.397 28.1285C10.5142 28.1945 10.615 28.283 10.6935 28.3888C10.7719 28.4946 10.8263 28.6155 10.8535 28.7443C11.2327 30.5411 12.098 32.0271 13.4254 33.1611C13.9899 33.6578 14.6402 34.0597 15.3509 34.3512C18.259 35.3454 22.7467 34.0023 26.5114 31.0074C30.2762 28.0124 32.2204 24.3118 31.7124 21.108C31.4065 19.1795 31.686 17.6911 32.2599 16.4857C31.5969 15.8918 31.0032 15.2314 30.488 14.5149C29.4301 12.9604 29.7943 11.9599 30.2859 11.3945C30.8918 10.6975 31.1652 9.98458 30.9994 9.53444C30.8156 9.03701 30.0618 8.67438 28.8756 8.51285Z" fill="#DF3034"/>
<path d="M33.6965 0.512536C31.3955 -0.128801 28.5246 0.450811 26.2057 2.02433C26.0938 2.10013 25.9878 2.17806 25.8856 2.25701C26.9854 4.54336 28.3418 5.92542 29.6609 6.07911C32.2555 6.38181 33.1659 7.44745 33.4729 8.28803C33.8875 9.42391 33.454 10.8284 32.2835 12.1466C32.2896 12.2694 32.4003 12.9113 33.8588 14.2957C34.5212 13.5859 35.2403 12.9223 36.0091 12.3114C38.1024 10.5698 39.6147 9.31156 38.6771 6.05568C37.8258 3.10018 36.1036 1.18338 33.6965 0.512536Z" fill="#DF3034"/>
</svg>
