<svg width="41" height="40" viewBox="0 0 41 40" fill="none" xmlns="http://www.w3.org/2000/svg">
<path d="M15.3 25.8333V24.9458C17.6205 24.5329 19.7246 23.3214 21.247 21.5198C22.7876 19.6966 23.633 17.3869 23.6333 15V6.66665C23.6333 5.75607 23.2716 4.88279 22.6277 4.23891C21.9838 3.59504 21.1106 3.23331 20.2 3.23331H18.5333C18.0648 3.23331 17.6154 3.41944 17.2841 3.75076C16.9528 4.08207 16.7667 4.53143 16.7667 4.99998C16.7667 5.46853 16.9528 5.91789 17.2841 6.2492C17.6154 6.58052 18.0648 6.76665 18.5333 6.76665H20.1V15C20.1 16.7416 19.4081 18.4118 18.1767 19.6433C16.9452 20.8748 15.2749 21.5666 13.5333 21.5666C11.7917 21.5666 10.1215 20.8748 8.88999 19.6433C7.6585 18.4118 6.96666 16.7416 6.96666 15V6.76665H8.53333C9.00187 6.76665 9.45123 6.58052 9.78255 6.2492C10.1139 5.91789 10.3 5.46853 10.3 4.99998C10.3 4.53143 10.1139 4.08207 9.78255 3.75076C9.45123 3.41944 9.00187 3.23331 8.53333 3.23331H6.86666C5.95608 3.23331 5.0828 3.59504 4.43893 4.23891C3.79505 4.88279 3.43333 5.75607 3.43333 6.66665V15C3.43363 17.3869 4.27901 19.6966 5.81961 21.5198C7.34202 23.3214 9.44616 24.5329 11.7667 24.9458V25.8333C11.7667 28.733 12.9186 31.5139 14.969 33.5643C17.0194 35.6147 19.8003 36.7666 22.7 36.7666C25.5997 36.7666 28.3806 35.6147 30.431 33.5643C32.4814 31.5139 33.6333 28.733 33.6333 25.8333V23.1202C34.7388 22.7121 35.6698 21.9335 36.2668 20.9159C36.8759 19.8779 37.0984 18.658 36.8949 17.4718C36.6915 16.2856 36.0752 15.2095 35.1551 14.4337C34.2349 13.658 33.0702 13.2325 31.8667 13.2325C30.6631 13.2325 29.4984 13.658 28.5782 14.4337C27.6581 15.2095 27.0419 16.2856 26.8384 17.4718C26.635 18.658 26.8574 19.8779 27.4665 20.9159C28.0636 21.9335 28.9945 22.7121 30.1 23.1202V25.8333C30.1 27.7959 29.3204 29.6781 27.9326 31.0659C26.5448 32.4537 24.6626 33.2333 22.7 33.2333C20.7374 33.2333 18.8552 32.4537 17.4674 31.0659C16.0796 29.6781 15.3 27.7959 15.3 25.8333ZM32.9745 19.4411C32.6807 19.7349 32.2822 19.9 31.8667 19.9C31.4512 19.9 31.0527 19.7349 30.7589 19.4411C30.465 19.1473 30.3 18.7488 30.3 18.3333C30.3 17.9178 30.465 17.5193 30.7589 17.2255C31.0527 16.9317 31.4512 16.7666 31.8667 16.7666C32.2822 16.7666 32.6807 16.9317 32.9745 17.2255C33.2683 17.5193 33.4333 17.9178 33.4333 18.3333C33.4333 18.7488 33.2683 19.1473 32.9745 19.4411Z" fill="#DF3034" stroke="#DF3034" stroke-width="0.2"/>
</svg>
