<svg width="41" height="40" viewBox="0 0 41 40" fill="none" xmlns="http://www.w3.org/2000/svg">
<g clip-path="url(#clip0_2195_18203)">
<path d="M14.975 3.75H26.225C26.5688 3.75 26.85 4.03125 26.85 4.375V7.5H14.35V4.375C14.35 4.03125 14.6313 3.75 14.975 3.75ZM10.6 4.375V7.5H5.60001C2.84219 7.5 0.600006 9.74219 0.600006 12.5V32.5C0.600006 35.2578 2.84219 37.5 5.60001 37.5H35.6C38.3578 37.5 40.6 35.2578 40.6 32.5V12.5C40.6 9.74219 38.3578 7.5 35.6 7.5H30.6V4.375C30.6 1.96094 28.6391 0 26.225 0H14.975C12.5609 0 10.6 1.96094 10.6 4.375ZM18.1 16.25C18.1 15.5625 18.6625 15 19.35 15H21.85C22.5375 15 23.1 15.5625 23.1 16.25V20H26.85C27.5375 20 28.1 20.5625 28.1 21.25V23.75C28.1 24.4375 27.5375 25 26.85 25H23.1V28.75C23.1 29.4375 22.5375 30 21.85 30H19.35C18.6625 30 18.1 29.4375 18.1 28.75V25H14.35C13.6625 25 13.1 24.4375 13.1 23.75V21.25C13.1 20.5625 13.6625 20 14.35 20H18.1V16.25Z" fill="#DF3034"/>
</g>
<defs>
<clipPath id="clip0_2195_18203">
<rect width="40" height="40" fill="white" transform="translate(0.600006)"/>
</clipPath>
</defs>
</svg>
