<svg width="41" height="40" viewBox="0 0 41 40" fill="none" xmlns="http://www.w3.org/2000/svg">
<g clip-path="url(#clip0_2195_18232)">
<path d="M15.9556 3.8889V7.77778H12.0667C11.1431 7.77778 10.4 8.52084 10.4 9.44445V12.7778C10.4 13.7014 11.1431 14.4445 12.0667 14.4445H15.9556V18.3333C15.9556 19.257 16.6986 20 17.6222 20H20.9556C21.8792 20 22.6222 19.257 22.6222 18.3333V14.4445H26.5111C27.4347 14.4445 28.1778 13.7014 28.1778 12.7778V9.44445C28.1778 8.52084 27.4347 7.77778 26.5111 7.77778H22.6222V3.8889C22.6222 2.96528 21.8792 2.22223 20.9556 2.22223H17.6222C16.6986 2.22223 15.9556 2.96528 15.9556 3.8889ZM39.2681 29.4583C40.5042 28.5486 40.7681 26.8125 39.8584 25.5764C38.9486 24.3403 37.2125 24.0764 35.9764 24.9861L27.6639 31.1111H19.2889C18.6778 31.1111 18.1778 30.6111 18.1778 30C18.1778 29.3889 18.6778 28.8889 19.2889 28.8889H24.8445C26.0736 28.8889 27.0667 27.8958 27.0667 26.6667C27.0667 25.4375 26.0736 24.4445 24.8445 24.4445H13.8514C11.8306 24.4445 9.87225 25.132 8.29586 26.3889L5.1778 28.8889H2.62225C1.39308 28.8889 0.400024 29.882 0.400024 31.1111V35.5556C0.400024 36.7847 1.39308 37.7778 2.62225 37.7778H24.8792C26.8931 37.7778 28.8584 37.132 30.4834 35.9375L39.275 29.4583H39.2681Z" fill="#DF3034"/>
</g>
<defs>
<clipPath id="clip0_2195_18232">
<rect width="40" height="40" fill="white" transform="translate(0.400024)"/>
</clipPath>
</defs>
</svg>
